<svg id="Calque_1" data-name="Calque 1" xmlns="http://www.w3.org/2000/svg" viewBox="0 0 484 502"><defs><style>.cls-1{fill:#d44747;}.cls-2{fill:#fff;}</style></defs><path class="cls-1" d="M241.5,36h0A176.5,176.5,0,0,1,418,212.5V434.13a.87.87,0,0,1-.87.87H241.5A176.5,176.5,0,0,1,65,258.5v-46A176.5,176.5,0,0,1,241.5,36Z"/><circle class="cls-2" cx="241" cy="258" r="27"/><path class="cls-2" d="M169,231.5c0-45.5,33.51-77.5,73-77.5s70,28,70,77.5V363h63V327H347V226.5A105.49,105.49,0,0,0,241.5,121h0A105.49,105.49,0,0,0,136,226.5V231Z"/></svg>