<svg id="Calque_1" data-name="Calque 1" xmlns="http://www.w3.org/2000/svg" viewBox="0 0 484 502"><defs><style>.cls-1{fill:#d44747;}.cls-2{fill:#fff;}</style></defs><rect class="cls-1" x="2" width="480" height="502"/><path class="cls-2" d="M241.5,36h0A176.5,176.5,0,0,0,65,212.5v46A176.5,176.5,0,0,0,241.5,435H417.13a.87.87,0,0,0,.87-.87V212.5A176.5,176.5,0,0,0,241.5,36ZM241,285a27,27,0,1,1,27-27A27,27,0,0,1,241,285Zm134,78H312V231.5c0-49.5-30.51-77.5-70-77.5s-73,32-73,77.5l-33-.5v-4.5A105.49,105.49,0,0,1,241.5,121h0A105.49,105.49,0,0,1,347,226.5V327h28Z"/></svg>